<svg xmlns="http://www.w3.org/2000/svg" viewBox="0 0 150 30" width="300" height="60" role="img">
<title>stackorder</title>
<path fill="#2F3E46" d="M6 6H24V8L22 10H4V8ZM6 22H24V24L22 26H4V24Z"/>
<path fill="#A4472F" d="M10 14H28V16L26 18H8V16Z"/>
<path fill="#2F3E46" d="M44.175 12.339Q44.058 12.526 43.93 12.602Q43.801 12.678 43.602 12.678Q43.392 12.678 43.152 12.561Q42.912 12.444 42.596 12.298Q42.281 12.152 41.877 12.035Q41.474 11.918 40.924 11.918Q40.07 11.918 39.585 12.281Q39.099 12.643 39.099 13.228Q39.099 13.614 39.351 13.877Q39.602 14.14 40.018 14.339Q40.433 14.538 40.959 14.696Q41.485 14.854 42.029 15.041Q42.573 15.228 43.099 15.468Q43.626 15.708 44.041 16.076Q44.456 16.444 44.708 16.959Q44.959 17.474 44.959 18.199Q44.959 19.064 44.649 19.795Q44.339 20.526 43.731 21.058Q43.123 21.591 42.228 21.889Q41.333 22.187 40.164 22.187Q39.544 22.187 38.953 22.076Q38.363 21.965 37.819 21.766Q37.275 21.567 36.813 21.298Q36.351 21.029 36 20.713L36.667 19.614Q36.795 19.415 36.971 19.31Q37.146 19.205 37.415 19.205Q37.684 19.205 37.924 19.357Q38.164 19.509 38.48 19.684Q38.795 19.86 39.222 20.012Q39.649 20.164 40.304 20.164Q40.819 20.164 41.187 20.041Q41.556 19.918 41.795 19.719Q42.035 19.52 42.146 19.257Q42.257 18.994 42.257 18.713Q42.257 18.292 42.006 18.023Q41.754 17.754 41.339 17.556Q40.924 17.357 40.392 17.199Q39.86 17.041 39.304 16.854Q38.749 16.667 38.216 16.415Q37.684 16.164 37.269 15.778Q36.854 15.392 36.602 14.83Q36.351 14.269 36.351 13.474Q36.351 12.737 36.643 12.07Q36.936 11.404 37.503 10.906Q38.07 10.409 38.918 10.111Q39.766 9.813 40.877 9.813Q42.117 9.813 43.135 10.222Q44.152 10.632 44.83 11.298ZM51.135 22.187Q49.567 22.187 48.731 21.304Q47.895 20.421 47.895 18.865V12.164H46.667Q46.433 12.164 46.269 12.012Q46.105 11.86 46.105 11.556V10.409L48.035 10.094L48.643 6.819Q48.702 6.585 48.865 6.456Q49.029 6.327 49.287 6.327H50.784V10.105H53.988V12.164H50.784V18.667Q50.784 19.228 51.058 19.544Q51.333 19.86 51.813 19.86Q52.082 19.86 52.263 19.795Q52.444 19.731 52.579 19.661Q52.713 19.591 52.819 19.526Q52.924 19.462 53.029 19.462Q53.158 19.462 53.24 19.526Q53.322 19.591 53.415 19.719L54.281 21.123Q53.649 21.649 52.83 21.918Q52.012 22.187 51.135 22.187ZM62.175 16.877Q60.924 16.936 60.07 17.094Q59.216 17.251 58.702 17.497Q58.187 17.743 57.965 18.07Q57.743 18.398 57.743 18.784Q57.743 19.544 58.193 19.871Q58.643 20.199 59.368 20.199Q60.257 20.199 60.906 19.877Q61.556 19.556 62.175 18.901ZM55.556 11.673Q57.626 9.778 60.538 9.778Q61.591 9.778 62.421 10.123Q63.251 10.468 63.825 11.082Q64.398 11.696 64.696 12.55Q64.994 13.404 64.994 14.421V22H63.684Q63.275 22 63.053 21.877Q62.83 21.754 62.702 21.38L62.444 20.515Q61.988 20.924 61.556 21.234Q61.123 21.544 60.655 21.754Q60.187 21.965 59.655 22.076Q59.123 22.187 58.48 22.187Q57.719 22.187 57.076 21.982Q56.433 21.778 55.965 21.368Q55.497 20.959 55.24 20.351Q54.982 19.743 54.982 18.936Q54.982 18.48 55.135 18.029Q55.287 17.579 55.632 17.17Q55.977 16.76 56.526 16.398Q57.076 16.035 57.877 15.766Q58.678 15.497 59.743 15.327Q60.807 15.158 62.175 15.123V14.421Q62.175 13.216 61.661 12.637Q61.146 12.058 60.175 12.058Q59.474 12.058 59.012 12.222Q58.55 12.386 58.199 12.591Q57.848 12.795 57.561 12.959Q57.275 13.123 56.924 13.123Q56.62 13.123 56.409 12.965Q56.199 12.807 56.07 12.596ZM76.304 12.538Q76.175 12.702 76.053 12.795Q75.93 12.889 75.696 12.889Q75.474 12.889 75.263 12.754Q75.053 12.62 74.76 12.45Q74.468 12.281 74.064 12.146Q73.661 12.012 73.064 12.012Q72.304 12.012 71.731 12.287Q71.158 12.561 70.778 13.076Q70.398 13.591 70.211 14.322Q70.023 15.053 70.023 15.977Q70.023 16.936 70.228 17.684Q70.433 18.433 70.819 18.942Q71.205 19.45 71.754 19.713Q72.304 19.977 72.994 19.977Q73.684 19.977 74.111 19.807Q74.538 19.637 74.83 19.433Q75.123 19.228 75.339 19.058Q75.556 18.889 75.825 18.889Q76.175 18.889 76.351 19.158L77.181 20.211Q76.702 20.772 76.14 21.152Q75.579 21.532 74.977 21.76Q74.374 21.988 73.737 22.082Q73.099 22.175 72.468 22.175Q71.357 22.175 70.374 21.76Q69.392 21.345 68.655 20.55Q67.918 19.754 67.491 18.602Q67.064 17.45 67.064 15.977Q67.064 14.655 67.444 13.526Q67.825 12.398 68.561 11.573Q69.298 10.749 70.386 10.281Q71.474 9.813 72.889 9.813Q74.234 9.813 75.246 10.246Q76.257 10.678 77.064 11.485ZM81.871 4.62V14.573H82.409Q82.702 14.573 82.871 14.497Q83.041 14.421 83.216 14.187L86.199 10.503Q86.386 10.257 86.614 10.129Q86.842 10 87.205 10H89.848L86.117 14.456Q85.719 14.982 85.251 15.263Q85.497 15.439 85.69 15.673Q85.883 15.906 86.058 16.175L90.058 22H87.45Q87.111 22 86.865 21.889Q86.62 21.778 86.456 21.485L83.392 16.936Q83.228 16.667 83.053 16.585Q82.877 16.503 82.526 16.503H81.871V22H78.982V4.62ZM96.187 9.813Q97.52 9.813 98.614 10.246Q99.708 10.678 100.485 11.474Q101.263 12.269 101.684 13.415Q102.105 14.561 102.105 15.977Q102.105 17.404 101.684 18.55Q101.263 19.696 100.485 20.503Q99.708 21.31 98.614 21.743Q97.52 22.175 96.187 22.175Q94.842 22.175 93.743 21.743Q92.643 21.31 91.865 20.503Q91.088 19.696 90.661 18.55Q90.234 17.404 90.234 15.977Q90.234 14.561 90.661 13.415Q91.088 12.269 91.865 11.474Q92.643 10.678 93.743 10.246Q94.842 9.813 96.187 9.813ZM96.187 19.953Q97.684 19.953 98.404 18.947Q99.123 17.942 99.123 16Q99.123 14.058 98.404 13.041Q97.684 12.023 96.187 12.023Q94.667 12.023 93.936 13.047Q93.205 14.07 93.205 16Q93.205 17.93 93.936 18.942Q94.667 19.953 96.187 19.953ZM107.041 12.082Q107.602 11.006 108.374 10.392Q109.146 9.778 110.199 9.778Q111.029 9.778 111.532 10.14L111.345 12.304Q111.287 12.515 111.175 12.602Q111.064 12.69 110.877 12.69Q110.702 12.69 110.357 12.632Q110.012 12.573 109.684 12.573Q109.205 12.573 108.83 12.713Q108.456 12.854 108.158 13.117Q107.86 13.38 107.632 13.754Q107.404 14.129 107.205 14.608V22H104.316V10H106.012Q106.456 10 106.632 10.158Q106.807 10.316 106.865 10.725ZM120.257 13.064Q119.766 12.468 119.187 12.222Q118.608 11.977 117.942 11.977Q117.287 11.977 116.76 12.222Q116.234 12.468 115.86 12.965Q115.485 13.462 115.287 14.228Q115.088 14.994 115.088 16.035Q115.088 17.088 115.257 17.819Q115.427 18.55 115.743 19.012Q116.058 19.474 116.515 19.678Q116.971 19.883 117.532 19.883Q118.433 19.883 119.064 19.509Q119.696 19.135 120.257 18.444ZM123.146 4.62V22H121.38Q120.807 22 120.655 21.474L120.409 20.316Q119.684 21.146 118.743 21.661Q117.801 22.175 116.55 22.175Q115.567 22.175 114.749 21.766Q113.93 21.357 113.339 20.579Q112.749 19.801 112.427 18.655Q112.105 17.509 112.105 16.035Q112.105 14.702 112.468 13.556Q112.83 12.409 113.509 11.567Q114.187 10.725 115.135 10.251Q116.082 9.778 117.263 9.778Q118.269 9.778 118.982 10.094Q119.696 10.409 120.257 10.947V4.62ZM133.731 14.62Q133.731 14.058 133.573 13.561Q133.415 13.064 133.099 12.69Q132.784 12.316 132.298 12.099Q131.813 11.883 131.17 11.883Q129.918 11.883 129.199 12.596Q128.48 13.31 128.281 14.62ZM128.222 16.363Q128.292 17.287 128.55 17.959Q128.807 18.632 129.228 19.07Q129.649 19.509 130.228 19.725Q130.807 19.942 131.509 19.942Q132.211 19.942 132.719 19.778Q133.228 19.614 133.608 19.415Q133.988 19.216 134.275 19.053Q134.561 18.889 134.83 18.889Q135.193 18.889 135.368 19.158L136.199 20.211Q135.719 20.772 135.123 21.152Q134.526 21.532 133.877 21.76Q133.228 21.988 132.556 22.082Q131.883 22.175 131.251 22.175Q130 22.175 128.924 21.76Q127.848 21.345 127.053 20.532Q126.257 19.719 125.801 18.52Q125.345 17.322 125.345 15.743Q125.345 14.515 125.743 13.433Q126.14 12.351 126.883 11.55Q127.626 10.749 128.696 10.281Q129.766 9.813 131.111 9.813Q132.246 9.813 133.205 10.175Q134.164 10.538 134.854 11.234Q135.544 11.93 135.936 12.942Q136.327 13.953 136.327 15.251Q136.327 15.906 136.187 16.135Q136.047 16.363 135.649 16.363ZM141.216 12.082Q141.778 11.006 142.55 10.392Q143.322 9.778 144.374 9.778Q145.205 9.778 145.708 10.14L145.52 12.304Q145.462 12.515 145.351 12.602Q145.24 12.69 145.053 12.69Q144.877 12.69 144.532 12.632Q144.187 12.573 143.86 12.573Q143.38 12.573 143.006 12.713Q142.632 12.854 142.333 13.117Q142.035 13.38 141.807 13.754Q141.579 14.129 141.38 14.608V22H138.491V10H140.187Q140.632 10 140.807 10.158Q140.982 10.316 141.041 10.725Z"/>
</svg>
